<?xml version="1.0" encoding="UTF-8"?>
<svg width="159px" height="64px" viewBox="0 0 159 64" version="1.1" xmlns="http://www.w3.org/2000/svg" xmlns:xlink="http://www.w3.org/1999/xlink">
    <!-- Generator: Sketch 46.2 (44496) - http://www.bohemiancoding.com/sketch -->
    <title>logo</title>
    <desc>Created with Sketch.</desc>
    <defs></defs>
    <g id="Logo" stroke="none" stroke-width="1" fill="none" fill-rule="evenodd">
        <g id="logo">
            <g id="icon">
                <circle id="Oval-2" stroke="#B6FF00" stroke-width="4" cx="32" cy="32" r="30"></circle>
                <path d="M32,64 C22.801264,64 14.5090644,60.1186562 8.67176851,53.9043357 C3.29413401,48.1793657 0,40.474376 0,32 L4.33335374,36.3333537 C5.19927506,41.909694 7.72471562,47.0537176 11.5872542,51.1657333 C15.8652241,55.7200126 21.4976198,58.7078777 27.6663493,59.6663509 L32,64 Z M32,64 C22.801264,64 14.5090644,60.1186562 8.67176851,53.9043357 C3.29413401,48.1793657 0,40.474376 0,32 L4.33335374,36.3333537 C5.19927506,41.909694 7.72471562,47.0537176 11.5872542,51.1657333 C15.8652241,55.7200126 21.4976198,58.7078777 27.6663493,59.6663509 L32,64 Z" id="Oval-2-Copy" fill="#BA01FF" fill-rule="nonzero"></path>
                <path d="M51.3017948,11.7159139 C55.7808223,15.97954 58.7177589,21.560621 59.6663841,27.6663825 L64,32 C64,22.8781641 60.1832799,14.647771 54.0596983,8.81867926 C48.3191392,3.35419007 40.5512761,0 32,0 L36.3333832,4.33338315 C41.9725425,5.20910886 47.1689436,7.78181605 51.3017948,11.7159139 Z M51.3017948,11.7159139 C55.7808223,15.97954 58.7177589,21.560621 59.6663841,27.6663825 L64,32 C64,22.8781641 60.1832799,14.647771 54.0596983,8.81867926 C48.3191392,3.35419007 40.5512761,0 32,0 L36.3333832,4.33338315 C41.9725425,5.20910886 47.1689436,7.78181605 51.3017948,11.7159139 Z" id="Path" fill="#BA01FF" fill-rule="nonzero"></path>
                <path d="M16,59.7128129 C8.03366093,55.1134449 2.79307736,47.6060028 0.844991035,39.3055955 C-0.949692049,31.6588088 0.0499990893,23.3390249 4.28718708,16 L5.87330409,21.9194727 C3.83504427,27.1816853 3.45012835,32.8992602 4.73917692,38.3916391 C6.16686788,44.4747455 9.55073313,49.8785105 14.413773,53.7929374 L16,59.7128129 Z" id="Oval-2-Copy-2" fill="#FF0092" fill-rule="nonzero"></path>
                <path d="M58.8578877,24.0843636 C60.6050262,30.0162858 60.3579475,36.318112 58.1266002,42.0801692 L59.7128129,48 C64.2737308,40.1002584 65.0835508,31.0641689 62.6949195,22.9542365 C60.4556941,15.3515705 55.4056224,8.56282515 48,4.28718708 L49.5861283,10.2066985 C54.0319207,13.7846789 57.2457824,18.6109093 58.8578877,24.0843636 Z M48,4.28718708 C55.4056224,8.56282515 60.4556941,15.3515705 62.6949195,22.9542365 C65.0835508,31.0641689 64.2737308,40.1002584 59.7128129,48 L58.1266002,42.0801692 C60.3579475,36.318112 60.6050262,30.0162858 58.8578877,24.0843636 C57.2457824,18.6109093 54.0319207,13.7846789 49.5861283,10.2066985 L48,4.28718708 Z" id="Path" fill="#FF0092" fill-rule="nonzero"></path>
                <path d="M6.00314749,21.5995585 C8.09751982,16.3610972 11.6922907,11.8983128 16.3802166,8.75685832 L18.4762156,2.99815081 C10.7958227,6.57957686 5.20489166,12.8213455 2.28899331,20.1146144 C-0.876145835,28.0312864 -0.88940301,37.1868983 2.99815081,45.5237844 L5.09428946,39.7646908 C3.3559448,33.7688479 3.68351694,27.4014374 6.00314749,21.5995585 Z M6.00314749,21.5995585 C8.09751982,16.3610972 11.6922907,11.8983128 16.3802166,8.75685832 L18.4762156,2.99815081 C10.7958227,6.57957686 5.20489166,12.8213455 2.28899331,20.1146144 C-0.876145835,28.0312864 -0.88940301,37.1868983 2.99815081,45.5237844 L5.09428946,39.7646908 C3.3559448,33.7688479 3.68351694,27.4014374 6.00314749,21.5995585 Z" id="Oval-2-Copy-3" fill="#FFCA1B" fill-rule="nonzero"></path>
                <path d="M61.0018492,18.4762156 C64.6157746,26.2263038 64.8586869,34.6839206 62.3322428,42.1960268 C59.637229,50.2093572 53.7909752,57.1467948 45.5237844,61.0018492 L47.6199104,55.2427934 C52.7527033,51.8026407 56.5696775,46.7822055 58.5409161,40.9209418 C60.3598013,35.5126849 60.4953718,29.715873 58.9058371,24.2349614 L61.0018492,18.4762156 Z M61.0018492,18.4762156 C64.6157746,26.2263038 64.8586869,34.6839206 62.3322428,42.1960268 C59.637229,50.2093572 53.7909752,57.1467948 45.5237844,61.0018492 L47.6199104,55.2427934 C52.7527033,51.8026407 56.5696775,46.7822055 58.5409161,40.9209418 C60.3598013,35.5126849 60.4953718,29.715873 58.9058371,24.2349614 L61.0018492,18.4762156 Z" id="Path" fill="#FFCA1B" fill-rule="nonzero"></path>
                <path d="M26.444,43.688 L25.916,47 L19.388,47 L25.244,13.88 L31.772,13.88 L29.564,25.928 C31.436,23.912 33.836,22.616 36.812,22.616 C42.476,22.616 46.268,26.984 46.268,33.224 C46.268,40.808 40.7,47.528 33.308,47.528 C30.284,47.528 27.644,45.896 26.444,43.688 Z M27.932,35.96 C27.932,38.792 29.708,41.096 32.588,41.096 C36.236,41.096 39.356,37.784 39.356,34.088 C39.356,31.304 37.532,29.048 34.748,29.048 C31.052,29.048 27.932,32.264 27.932,35.96 Z" id="b" fill="#228DFF" fill-rule="evenodd"></path>
            </g>
            <path d="M76.928,44.792 L76.576,47 L72.224,47 L76.128,24.92 L80.48,24.92 L79.008,32.952 C80.256,31.608 81.856,30.744 83.84,30.744 C87.616,30.744 90.144,33.656 90.144,37.816 C90.144,42.872 86.432,47.352 81.504,47.352 C79.488,47.352 77.728,46.264 76.928,44.792 Z M77.92,39.64 C77.92,41.528 79.104,43.064 81.024,43.064 C83.456,43.064 85.536,40.856 85.536,38.392 C85.536,36.536 84.32,35.032 82.464,35.032 C80,35.032 77.92,37.176 77.92,39.64 Z M106.88,40.408 L96.16,40.408 C96.224,42.232 97.568,43.416 99.712,43.416 C101.6,43.416 103.584,42.84 105.184,41.912 L104.448,46.104 C102.912,46.84 101.12,47.352 99.04,47.352 C94.848,47.352 91.936,44.312 91.936,40.184 C91.936,34.84 95.808,30.744 101.024,30.744 C104.928,30.744 107.328,33.4 107.328,36.888 C107.328,38.232 107.136,39.64 106.88,40.408 Z M100.64,34.36 C98.848,34.36 97.152,35.512 96.704,37.112 L103.264,37.112 L103.264,36.76 C103.264,35.352 102.24,34.36 100.64,34.36 Z M113.984,47 L116.128,34.776 L118.688,34.776 L119.36,31.064 L116.768,31.064 L117.568,26.648 L113.28,27.576 L112.672,31.064 L110.112,31.064 L109.44,34.776 L111.776,34.776 L109.6,47 L113.984,47 Z M124.48,47 L120.096,47 L122.272,34.776 L119.936,34.776 L120.608,31.064 L123.168,31.064 L123.776,27.576 L128.064,26.648 L127.264,31.064 L129.856,31.064 L129.184,34.776 L126.624,34.776 L124.48,47 Z M144.768,40.408 L134.048,40.408 C134.112,42.232 135.456,43.416 137.6,43.416 C139.488,43.416 141.472,42.84 143.072,41.912 L142.336,46.104 C140.8,46.84 139.008,47.352 136.928,47.352 C132.736,47.352 129.824,44.312 129.824,40.184 C129.824,34.84 133.696,30.744 138.912,30.744 C142.816,30.744 145.216,33.4 145.216,36.888 C145.216,38.232 145.024,39.64 144.768,40.408 Z M138.528,34.36 C136.736,34.36 135.04,35.512 134.592,37.112 L141.152,37.112 L141.152,36.76 C141.152,35.352 140.128,34.36 138.528,34.36 Z M153.44,31.064 L149.088,31.064 L146.272,47 L150.624,47 L152.256,37.752 C152.64,36.056 153.824,35 155.232,35 C156.192,35 156.96,35.192 157.504,35.48 L158.336,30.84 C157.984,30.776 157.312,30.744 156.96,30.744 C155.264,30.744 154.176,31.32 153.216,32.504 L153.44,31.064 Z" id="better" fill="#228DFF"></path>
        </g>
    </g>
</svg>